<svg xmlns="http://www.w3.org/2000/svg" version="1.1" viewBox="285.08 260 446.42 482.91">
	<path d="M 285.267 275.250 C 285.874 291.536, 288.146 305.065, 292.528 318.488 C 295.938 328.934, 307.250 353.320, 310.451 357.124 C 311.853 358.790, 313 360.775, 313 361.534 C 313 364.018, 327.947 382.825, 339.340 394.676 C 352.842 408.721, 365.658 419.562, 381 429.915 C 410.501 449.825, 434.877 460.961, 547.500 505.983 C 565.650 513.239, 584.775 521.431, 590 524.189 C 608.187 533.787, 624.058 545.050, 641.872 561 C 649.919 568.205, 662.165 585.533, 670.846 602 C 674.804 609.507, 696.215 666.492, 700.529 681 C 701.911 685.647, 711.249 703.449, 716.527 711.500 C 722.438 720.514, 730.450 729.829, 731.456 728.855 C 731.823 728.501, 730.062 719.995, 727.543 709.953 C 724.749 698.819, 721.783 683.270, 719.939 670.098 C 711.507 609.860, 709.942 600.733, 706.013 588.888 C 694.366 553.777, 671.903 526.520, 637.500 505.755 C 632.550 502.767, 591.150 481.507, 545.500 458.510 C 445.013 407.889, 434.724 402.278, 401.006 379.727 C 351.195 346.411, 321.036 317.723, 299.048 282.738 C 295.819 277.601, 291.691 270.384, 289.874 266.699 C 288.057 263.015, 286.150 260, 285.635 260 C 285.069 260, 284.924 266.040, 285.267 275.250 M 302.328 393.500 C 304.209 414.085, 312.908 433.348, 331.116 457.247 C 346.739 477.752, 379.880 500.830, 411.654 513.329 C 425.275 518.686, 475.458 532.693, 534.080 547.499 C 569.864 556.537, 593.207 564.710, 607.126 573.076 C 611.637 575.787, 615.512 577.821, 615.738 577.596 C 617.818 575.516, 599.590 555.811, 584 543.286 C 563.167 526.548, 551.373 520.382, 504.500 501.720 C 449.514 479.827, 427.662 470.446, 407.500 460.076 C 367.582 439.546, 332.966 416.454, 311.979 396.355 L 301.689 386.500 302.328 393.500 M 339.352 496.028 C 339.726 498.488, 341.583 503.680, 343.479 507.566 C 355.795 532.804, 375.341 551.506, 403.500 564.996 C 426.937 576.224, 450.960 581.743, 495 586.017 C 531.784 589.587, 568.870 593.995, 579.914 596.110 C 592.289 598.479, 618.151 604.903, 629.250 608.365 C 633.513 609.695, 637 610.634, 637 610.451 C 637 610.269, 633.063 606.866, 628.250 602.889 C 608.683 586.721, 588.028 575.492, 562.441 567.113 C 554.163 564.402, 526.093 557.227, 499.500 551.025 C 446.839 538.743, 433.473 535.227, 415.500 528.929 C 390.910 520.312, 359.724 505.310, 341.087 493.133 L 338.673 491.556 339.352 496.028 M 399 585.575 C 399 587.668, 409.599 601.864, 416.272 608.709 C 439.919 632.965, 465.401 640.302, 520 638.577 C 531.825 638.203, 545.100 637.495, 549.500 637.003 C 560.585 635.763, 603.596 635.782, 616.144 637.032 C 625.085 637.922, 642.826 641.076, 647.875 642.672 C 650.136 643.387, 645.760 639.808, 638 634.595 C 622.861 624.424, 605.635 617.538, 581.790 612.124 C 566.124 608.567, 555.199 607.006, 521.500 603.511 C 458.351 596.960, 437.692 593.948, 415.116 588 C 404.204 585.124, 399 584.342, 399 585.575 M 570 649.083 C 564.775 649.593, 552.400 650.997, 542.500 652.203 C 528.744 653.878, 517.806 654.461, 496.107 654.674 C 480.491 654.827, 467.491 655.176, 467.217 655.450 C 466.516 656.151, 473.413 663.620, 479.968 669.257 C 486.552 674.919, 500.947 682.248, 510 684.549 C 515.237 685.880, 519.804 686.108, 533.500 685.724 C 549.674 685.271, 551.520 685.002, 571.500 680.190 C 608.377 671.307, 621.288 668.999, 634.072 669.006 C 644.232 669.011, 648.081 669.396, 660.750 671.677 C 665.724 672.572, 664.700 670.690, 657.750 666.167 C 648.700 660.276, 635.671 654.425, 624.893 651.412 C 616.657 649.110, 613.282 648.748, 597.500 648.471 C 587.600 648.297, 575.225 648.573, 570 649.083 M 627.569 682.040 C 622.107 682.521, 613.782 684.039, 609.069 685.412 C 577.270 694.677, 564.977 698.147, 553.704 701.039 L 540.909 704.322 544.623 708.126 C 549.130 712.741, 559.557 718.303, 566.919 720.018 C 579.767 723.011, 605.044 719.041, 621.405 711.459 C 644.664 700.681, 658.189 696.540, 674.143 695.309 C 678.430 694.979, 681.694 694.314, 681.396 693.832 C 680.266 692.003, 669.133 687.151, 660 684.507 C 649.145 681.364, 641.676 680.796, 627.569 682.040 M 660.763 712.033 C 653.942 713.181, 646.578 715.750, 638 719.973 C 633.875 722.004, 625.888 725.612, 620.250 727.992 C 614.612 730.372, 610 732.851, 610 733.501 C 610 735.147, 618.337 739.488, 625.435 741.536 C 629.914 742.829, 633.717 743.130, 640.935 742.764 C 649.670 742.320, 651.846 741.755, 666.021 736.246 C 683.784 729.342, 691.171 727, 695.182 727 C 698.543 727, 698.689 726.145, 695.927 722.634 C 693.164 719.121, 686.293 715.193, 678.875 712.884 C 672.511 710.903, 668.571 710.718, 660.763 712.033" stroke="none" fill="#ededed" fill-rule="evenodd"/>
</svg>